# xmcd
#
# Track frame offsets:
# 150
# 15395
# 31573
# 51801
# 71082
# 90060
# 106297
# 121892
# 136393
# 154543
# 172441
# 193066
# 210193
# 226900
# 242920
#
# Disc length: 3445 seconds
#
#
# Revision: 0
# Processed by: cddbd v1.5.2PL0 Copyright (c) Steve Scherf et al.
# Submitted via: FreeRIP 2.941 
#
DISCID=b80d730f
DTITLE=Phil Vassar - Greatest Hits, Volume 1
DYEAR=2006
DGENRE=Country
TTITLE0=Phil Vassar - Bye Bye
TTITLE1=Phil Vassar - In a real love
TTITLE2=Phil Vassar - Carlene
TTITLE3=Phil Vassar - I'm alright
TTITLE4=Phil Vassar - Last day of my life
TTITLE5=Phil Vassar - My next thirty years
TTITLE6=Phil Vassar - Little red rodeo
TTITLE7=Phil Vassar - American child
TTITLE8=Phil Vassar - Twenty One
TTITLE9=Phil Vassar - Just another day in paradise
TTITLE10=Phil Vassar - For a little while
TTITLE11=Phil Vassar - The woman in my life
TTITLE12=Phil Vassar - Six-Pack Summer
TTITLE13=Phil Vassar - That's when I love you
TTITLE14=Phil Vassar - I'll take that as a yes (The hot tub song)
EXTD=
EXTT0=
EXTT1=
EXTT2=
EXTT3=
EXTT4=
EXTT5=
EXTT6=
EXTT7=
EXTT8=
EXTT9=
EXTT10=
EXTT11=
EXTT12=
EXTT13=
EXTT14=
PLAYORDER=
